<svg width="26" height="26" viewBox="0 0 26 26" fill="none" xmlns="http://www.w3.org/2000/svg">
<path d="M0.5 13C0.5 9.68479 1.81696 6.50537 4.16117 4.16117C6.50537 1.81696 9.68479 0.5 13 0.5C16.3152 0.5 19.4946 1.81696 21.8388 4.16117C24.183 6.50537 25.5 9.68479 25.5 13C25.5 16.3152 24.183 19.4946 21.8388 21.8388C19.4946 24.183 16.3152 25.5 13 25.5C9.68479 25.5 6.50537 24.183 4.16117 21.8388C1.81696 19.4946 0.5 16.3152 0.5 13V13ZM7.115 12.755C7.23111 12.8714 7.36905 12.9638 7.52092 13.0268C7.67278 13.0898 7.83558 13.1222 8 13.1222C8.16442 13.1222 8.32722 13.0898 8.47908 13.0268C8.63095 12.9638 8.76889 12.8714 8.885 12.755L11.75 9.89V19.25C11.75 19.5815 11.8817 19.8995 12.1161 20.1339C12.3505 20.3683 12.6685 20.5 13 20.5C13.3315 20.5 13.6495 20.3683 13.8839 20.1339C14.1183 19.8995 14.25 19.5815 14.25 19.25V9.89L17.115 12.755C17.3494 12.9897 17.6674 13.1217 17.9991 13.1219C18.3308 13.1222 18.649 12.9906 18.8838 12.7563C19.1185 12.5219 19.2505 12.2038 19.2507 11.8721C19.2509 11.5404 19.1194 11.2222 18.885 10.9875L13.885 5.9875C13.7689 5.87109 13.6309 5.77873 13.4791 5.71572C13.3272 5.6527 13.1644 5.62027 13 5.62027C12.8356 5.62027 12.6728 5.6527 12.5209 5.71572C12.3691 5.77873 12.2311 5.87109 12.115 5.9875L7.115 10.9875C6.88066 11.2219 6.74902 11.5398 6.74902 11.8713C6.74902 12.2027 6.88066 12.5206 7.115 12.755V12.755Z" fill="#C70101"/>
</svg>
